<?xml version="1.0" encoding="UTF-8"?>
<svg width="190px" height="190px" viewBox="0 0 190 190" version="1.1" xmlns="http://www.w3.org/2000/svg" xmlns:xlink="http://www.w3.org/1999/xlink">
    <title>Combined Shape</title>
    <defs>
        <filter x="0.0%" y="0.0%" width="100.0%" height="100.0%" filterUnits="objectBoundingBox" id="filter-1">
            <feGaussianBlur stdDeviation="0" in="SourceGraphic"></feGaussianBlur>
        </filter>
    </defs>
    <g id="Dashboard" stroke="none" stroke-width="1" fill="none" fill-rule="evenodd" fill-opacity="0.05">
        <g id="Dashboard-(1)-Copy" transform="translate(-434, -137)" fill="#609FEE" fill-rule="nonzero">
            <g id="Group-25" transform="translate(329, 0)">
                <g id="Group-24" transform="translate(32, 112)">
                    <g id="clapperboard" transform="translate(73, 25)">
                        <path d="M190,60.4545514 L190,138.181821 C189.977133,166.790737 166.790729,189.977141 138.181813,190.000001 L51.8181798,190.000001 C23.2092635,189.977141 0.0228597124,166.790737 0,138.181821 L0,60.4545514 L190,60.4545514 Z M73.3324646,81.0901407 C70.7042312,82.6437762 69.0915971,85.4696364 69.0909064,88.5227322 L69.0909064,136.02273 C69.0915971,139.075826 70.7042312,141.901686 73.3324646,143.455322 C75.9606979,145.008957 79.2139307,145.059472 81.8891332,143.588185 L125.07095,119.838186 C127.832738,118.322827 129.549334,115.422935 129.549334,112.272731 C129.549334,109.122528 127.832738,106.222635 125.07095,104.707277 L81.8891332,80.9572779 C79.2139307,79.485991 75.9606979,79.5365052 73.3324646,81.0901407 Z M28.1545444,5.78637168 L65.5499975,43.1818248 L0.777272698,43.1818248 C3.45763528,27.0809671 13.6157667,13.2056645 28.1545444,5.78637168 Z M78.4181788,8.26364157e-06 L121.599995,43.1818248 L89.904542,43.1818248 L46.8954528,0.17273553 C48.5363618,0.0863718967 50.1772708,8.26364157e-06 51.8181798,8.26364157e-06 L78.4181788,8.26364157e-06 Z M138.181813,4.13011885e-06 C163.460732,-0.0100261843 185.044737,18.2505531 189.22272,43.1818248 L146.127267,43.1818248 L102.945451,4.13011885e-06 Z" id="Combined-Shape" filter="url(#filter-1)"></path>
                    </g>
                </g>
            </g>
        </g>
    </g>
</svg>