<?xml version="1.0" encoding="UTF-8"?>
<svg width="220px" height="195px" viewBox="0 0 220 195" version="1.1" xmlns="http://www.w3.org/2000/svg" xmlns:xlink="http://www.w3.org/1999/xlink">
    <title>Combined Shape</title>
    <defs>
        <filter x="0.0%" y="0.0%" width="100.0%" height="100.0%" filterUnits="objectBoundingBox" id="filter-1">
            <feGaussianBlur stdDeviation="0" in="SourceGraphic"></feGaussianBlur>
        </filter>
    </defs>
    <g id="Dashboard" stroke="none" stroke-width="1" fill="none" fill-rule="evenodd" opacity="0.05">
        <g id="Dashboard-(1)-Copy" transform="translate(-778, -135)" fill="#FF9D9A">
            <g id="Group-25" transform="translate(329, 0)">
                <g id="Group-24" transform="translate(32, 112)">
                    <g id="Group-9-Copy" transform="translate(359, 0)">
                        <path d="M157.491411,23 L121.697337,85.6387424 L58.3825139,85.6387424 C58.2543133,85.6387424 58.1267391,85.6418744 58,85.6479295 C58.0440559,85.4461283 58.0900954,85.2446404 58.1382228,85.04357 C59.6483385,78.7309419 63.9929617,72.938111 72.6821036,61.3525536 L86.4132468,43.0443976 C91.9253517,35.6947851 94.6814564,32.0199789 98.1744014,29.3696293 C101.268025,27.0221381 104.771305,25.27055 108.505409,24.2041254 C112.370176,23.1003438 116.552063,23.008362 124.298546,23.0006968 L157.491411,23 Z M211.701767,23.0006968 C219.448254,23.008362 223.630181,23.1003438 227.495426,24.2041254 C231.228695,25.27055 234.732289,27.0221381 237.825599,29.3696293 C241.318752,32.0199789 244.074857,35.6947851 249.587066,43.0442932 L263.318523,61.3524492 C272.00756,72.938111 276.351557,78.7309419 277.862195,85.04357 C277.910218,85.2446404 277.956153,85.4461283 278,85.6479295 C277.873679,85.64177 277.746313,85.6387424 277.617904,85.6387424 L214.303707,85.6387424 L178.509841,23 Z M168.000104,36.1715704 L196.266881,85.6387424 L139.733432,85.6387424 L168.000104,36.1715704 Z M120.597818,101.298428 L159.484367,217.957866 C154.959762,215.733147 150.663788,210.823313 142.858584,201.903556 L75.0586175,124.417344 C65.5220778,113.518203 60.7538079,108.069676 58.7729621,101.888172 C58.7101145,101.692008 58.6492506,101.495427 58.5903701,101.298428 L120.597818,101.298428 Z M277.410152,101.298428 C277.350645,101.495427 277.290094,101.692008 277.227456,101.888172 C275.247027,108.069676 270.478131,113.518203 260.942426,124.417344 L193.142252,201.903556 C185.337464,210.822269 181.041491,215.732103 176.516885,217.957866 L215.403017,101.298428 Z M198.896664,101.298428 L168.000104,193.986019 L137.104484,101.298428 L198.896664,101.298428 Z" id="Combined-Shape" filter="url(#filter-1)"></path>
                    </g>
                </g>
            </g>
        </g>
    </g>
</svg>